<svg xmlns="http://www.w3.org/2000/svg" viewBox="0 0 32 32" fill="#13aa52">
  <path d="M15.9.087l.854 1.604c.192.296.4.558.645.802.715.715 1.394 1.464 2.004 2.266 1.447 1.9 2.423 4.01 3.12 6.292.418 1.394.645 2.824.662 4.27.07 4.323-1.412 8.035-4.4 11.12-.488.488-1.01.94-1.57 1.342-.296 0-.436-.227-.558-.436-.227-.383-.366-.802-.436-1.222-.105-.558-.105-1.133-.105-1.7 0-.47 0-.94.07-1.394.07-.383.227-.732.366-1.08.14-.35.296-.662.366-1.01.14-.53.227-1.06.296-1.59.07-.53.07-1.06.07-1.59 0-.477-.105-.97-.296-1.43-.21-.46-.488-.87-.855-1.2-.366-.383-.8-.645-1.274-.87-.47-.21-.97-.366-1.48-.436-.94-.156-1.9-.156-2.84.07-.93.226-1.806.662-2.542 1.25-.736.645-1.394 1.377-1.87 2.215-.663 1.152-1.01 2.386-1.08 3.676-.07.934 0 1.87.23 2.8.157.662.383 1.306.663 1.934.55.867 1.306 1.663 2.25 2.215.868.52 1.805.868 2.807 1.01.542.07 1.084.105 1.634.105.493 0 .986-.035 1.465-.105.807-.14 1.6-.383 2.35-.7.07-.05.14-.088.227-.105.17-.052.305.106.227.262-.244.35-.488.7-.78 1.01-.3.35-.663.663-1.01.934-.847.662-1.806 1.186-2.807 1.6-.542.21-1.1.383-1.672.488-.807.14-1.634.21-2.458.21-.78 0-1.553-.07-2.318-.21-.847-.174-1.67-.436-2.458-.78-1.59-.608-3.033-1.464-4.27-2.614C2.318 26.248.79 22.276.79 18.1c0-3.156 1.06-6.052 2.807-8.4 1.806-2.387 4.34-4.153 7.186-5.06 1.046-.33 2.126-.555 3.227-.63 1.7-.14 3.4 0 5.06.437 1.62.4 3.12 1.06 4.46 1.926.21.14.38.296.555.452.157.14.288.366.366.557.114.28.114.592 0 .85-.23.6-.645 1.04-1.24 1.3-.663.296-1.376.557-2.074.78-.226.07-.436.14-.67.21-.156.052-.35.052-.47-.07-.156-.174-.226-.4-.296-.627-.21-.634-.627-1.154-1.154-1.53-.918-.694-2.074-.918-3.156-.646-1.15.366-2.108 1.133-2.7 2.18-.847 1.553-1.133 3.39-.8 5.146.366 1.9 1.417 3.57 2.9 4.74.21.174.435.34.67.47.23.13.414.35.55.575.156.226.244.47.244.734.026.244-.105.47-.296.644-.21.226-.488.366-.766.436-.28.07-.558.105-.85.105-.47 0-.94-.087-1.395-.28-.94-.4-1.806-.974-2.526-1.68-1.98-1.94-3.156-4.583-3.262-7.347-.14-3.772 1.535-7.4 4.375-9.947 2.144-1.94 4.932-3.03 7.8-3.156.86-.035 1.7 0 2.544.105 2.47.3 4.838 1.195 6.755 2.624.974.73 1.842 1.57 2.594 2.5.105.14.21.278.314.418.105.156.105.35-.052.453-.156.087-.35.053-.488-.035-.174-.105-.314-.21-.47-.296-.63-.366-1.26-.696-1.933-.974-1.528-.627-3.156-1.01-4.8-1.133-1.01-.07-2.04-.07-3.05 0-.83.07-1.66.226-2.472.435-.156.035-.314.07-.47.14-.244.07-.523.052-.732-.07-.226-.122-.226-.435-.105-.631.07-.122.174-.226.296-.296.12-.087.27-.122.4-.156.4-.087.8-.14 1.2-.21.34-.053.697-.088 1.05-.105zm1.37 8.12c.104.104.174.227.244.35.78 1.308 1.494 2.65 2.25 3.99.21.4.366.8.488 1.223.105.35.122.7.052 1.05-.07.33-.226.627-.47.836-.244.21-.54.33-.87.33-.33 0-.645-.122-.9-.33-.245-.21-.453-.47-.575-.767-.122-.296-.174-.61-.174-.94 0-.33 0-.66.053-.99.054-.33.157-.644.28-.95.435-.974.87-1.934 1.29-2.9.122-.278.244-.57.33-.853z"/>
</svg>
