<svg xmlns="http://www.w3.org/2000/svg" viewBox="0 0 256 256" fill="none">
  <path fill="#000000" d="M181.334 52.5C169.31 52.5 159.334 62.4764 159.334 74.5V181.5C159.334 193.524 169.31 203.5 181.334 203.5H203.334C215.358 203.5 225.334 193.524 225.334 181.5V74.5C225.334 62.4764 215.358 52.5 203.334 52.5H181.334Z"/>
  <path fill="#000000" d="M52.6668 52.5C40.6432 52.5 30.6668 62.4764 30.6668 74.5V181.5C30.6668 193.524 40.6432 203.5 52.6668 203.5H74.6668C86.6904 203.5 96.6668 193.524 96.6668 181.5V74.5C96.6668 62.4764 86.6904 52.5 74.6668 52.5H52.6668Z"/>
  <path fill="#000000" d="M117 74.5C117 62.4764 126.976 52.5 139 52.5H161C173.024 52.5 183 62.4764 183 74.5V181.5C183 193.524 173.024 203.5 161 203.5H139C126.976 203.5 117 193.524 117 181.5V74.5Z" opacity="0.4"/>
</svg>
