<svg xmlns="http://www.w3.org/2000/svg" viewBox="0 0 32 32" fill="#000000">
  <path d="M32 24.795c-1.164.296-1.884.013-2.53-.957l-4.594-6.356-.664-.88-5.365 7.257c-.613.873-1.256 1.253-2.4.944l6.87-9.222-6.396-8.33c1.1-.214 1.86-.105 2.535.88l4.765 6.435 4.8-6.4c.615-.873 1.276-1.205 2.38-.883l-2.48 3.288-3.36 4.375c-.4.5-.345.842.023 1.325L32 24.795zM.008 15.427l.975-5.291c.252-1.32 1.023-1.745 2.238-1.34 1.245.44 1.9.938 1.903 1.726v1.8L3.16 19.65c-.202 1.432-.597 2.78-1.672 3.235-1.37.568-2.655.21-3.3-1.287-.59-1.3-.197-2.615.344-3.83.667-1.504 1.494-2.905 2.212-4.264 1.017-1.93-.392-3.416-2.238-2.95-.18.05-.29.125-.293.17-.368 1.92-1.627 3.2-3.183 4.1-.597.36-1.34.683-1.978.94-.789.32-1.55-.368-1.53-1.93.008-.72.157-1.42.384-2.08.934-2.656 2.17-5.138 3.342-7.67.38-.817 1.1-1.338 1.838-1.084 1.86.665 1.854 2.427.488 3.486-1.208.938-1.577 2.28-1.72 3.656-.05.48-.05 1.1.4 1.248.45.147.936-.24 1.256-.64.5-.63.785-1.37 1.033-2.15.77-2.42 1.5-4.86 2.302-7.26.285-.87.557-1.8 1.023-2.52C1.97-.35 3.7-.23 4.86.9c.83.818 1.22 1.823 1.22 3.01 0 1.167-.217 2.342-.498 3.49-.174.71-.413 1.246-1.1 1.47-.677.223-1.142-.12-1.298-.793-.17-.73.154-1.316.6-1.832.446-.517.678-1.15.69-1.822.022-1.143-.714-1.768-1.673-1.382-.92.37-1.314 1.124-1.636 1.966-.59 1.535-1.043 3.133-1.566 4.7-.306.908-.345 1.83-.097 2.757.207.77.687 1.333 1.436 1.47.878.16 1.618-.23 2.26-.818 1.223-1.133 2.128-2.535 2.71-4.14.138-.386.127-.87.316-1.22.9-1.673 2.638-2.353 3.77-1.27.59.563.69 1.318.42 2.072-.272.762-.875 1.237-1.613 1.26-.74.025-1.14-.353-1.278-1.06-.13-.666.033-1.237.586-1.65.106-.08.073-.235.04-.356-.07-.234-.232-.374-.478-.38-.35-.01-.68.162-.842.446-.23.414-.28.846-.254 1.305.035.612.287 1.027.885 1.22.935.3 1.848.116 2.575-.586.843-.814 1.216-1.89 1.15-3.094-.07-1.258-.637-2.207-1.766-2.857-2.187-1.256-4.76.1-5.612 2.368-.147.386-.2.798-.297 1.2-.097.4-.14.81-.376 1.153-.236.342-.68.526-1.074.472-.393-.054-.707-.35-.81-.782-.105-.432.01-.86.306-1.2.816-.932 1.23-2.116 1.728-3.254.497-1.14.898-2.3.757-3.54-.2-1.746-1.62-2.677-3.065-2-.788.37-1.347 1.06-1.762 1.873-.69 1.336-1.332 2.697-1.975 4.055-1.772 3.72-3.684 7.37-4.16 11.46-.18 1.558.164 3.06 1.383 4.076.965.81 2.058.722 3.063-.22 1.15-1.082 2.24-2.27 3.32-3.435 1.232-1.325 2.424-2.693 3.767-3.923.67-.614 1.752-.387 2.203.45.532.994.234 2.22-.703 2.913-1.77 1.3-3.596 2.5-5.502 3.6-1.413.81-2.913 1.5-4.66 1.133-2.062-.433-3.09-2.11-3.566-3.954-.398-1.56-.38-3.12-.152-4.716z"/>
</svg>
